<?xml version="1.0" encoding="utf-8"?>
<!-- Generator: Adobe Illustrator 18.0.0, SVG Export Plug-In . SVG Version: 6.00 Build 0)  -->
<!DOCTYPE svg PUBLIC "-//W3C//DTD SVG 1.1//EN" "http://www.w3.org/Graphics/SVG/1.1/DTD/svg11.dtd">
<svg version="1.1" id="Calque_1" xmlns="http://www.w3.org/2000/svg" xmlns:xlink="http://www.w3.org/1999/xlink" x="0px" y="0px"
	 viewBox="0 269.3 595.3 303.1" enable-background="new 0 269.3 595.3 303.1" xml:space="preserve">
<path opacity="0.15" fill="#010202" enable-background="new    " d="M297.3,557.7c164.3,0,297.5,3.3,297.5,7.3
	c0,4.1-133.2,7.3-297.5,7.3S-0.2,569.1-0.2,565C-0.2,561,133,557.7,297.3,557.7z"/>
<path fill="#E8EBF0" d="M297.3,560H82.4V284c0-8.1,6.6-14.7,14.7-14.7h200.2h200.1c8.1,0,14.7,6.6,14.7,14.7v276H297.3z"/>
<path fill="#F4F5F7" d="M539.8,565H297.3H54.9c-14.6,0-26.6-4.9-27.5-11h269.9h269.9C566.3,560.2,554.4,565,539.8,565z"/>
<path fill="#A5ADBD" d="M297.3,275.3c1.7,0,3.2,1.4,3.2,3.2s-1.4,3.2-3.2,3.2c-1.7,0-3.2-1.4-3.2-3.2
	C294.2,276.7,295.6,275.3,297.3,275.3z"/>
<path fill="#D8DBE1" d="M335.3,554c-1.4,3.3-4.7,5.5-8.4,5.5h-29.4h-0.2h-29.4c-3.7,0-7-2.3-8.4-5.5H335.3z"/>
</svg>
