<?xml version="1.0" encoding="iso-8859-1"?>
<!-- Generator: Adobe Illustrator 17.1.0, SVG Export Plug-In . SVG Version: 6.00 Build 0)  -->
<!DOCTYPE svg PUBLIC "-//W3C//DTD SVG 1.1//EN" "http://www.w3.org/Graphics/SVG/1.1/DTD/svg11.dtd">
<svg version="1.1" id="Calque_1" xmlns="http://www.w3.org/2000/svg" xmlns:xlink="http://www.w3.org/1999/xlink" x="0px" y="0px"
	 viewBox="0 0 22.562 23.312" style="enable-background:new 0 0 22.562 23.312;" xml:space="preserve">
<path style="fill-rule:evenodd;clip-rule:evenodd;fill:#F5484E;" d="M3.38,12.689c0.227-5.642,4.531-8.015,10.186-7.687
	c3.666,0.213,8.399,1.762,8.357,8.109c-0.017,2.625-2.952,7.385-3.556,7.988c-2.093,2.093-3.746,0.656-5.71,0.618
	c-1.174-0.023-2.457,0.612-3.55,0.521C8.307,22.256,3.145,18.534,3.38,12.689z"/>
<path style="fill:#DC4146;" d="M13.657,20.717c-1.174-0.023-2.457,0.612-3.55,0.521c-0.8,0.018-5.963-3.704-5.728-9.549
	c0.08-1.985,0.673-3.558,1.644-4.758c-1.565,1.267-2.54,3.163-2.644,5.758c-0.235,5.845,4.928,9.567,5.728,9.549
	c1.093,0.09,2.376-0.544,3.55-0.521c1.964,0.038,3.617,1.475,5.71-0.618c0.082-0.082,0.21-0.247,0.365-0.467
	C16.93,21.902,15.418,20.751,13.657,20.717z"/>
<path style="fill-rule:evenodd;clip-rule:evenodd;fill:#534718;" d="M11.544,3.896c0.202-0.341,0.72-0.328,0.942-0.081
	c0.482,0.539-0.033,1.12-0.05,2.012c-0.015,0.805,0.098,1.426,0.098,1.426l-0.659,0.32c0.144-0.143-0.11-0.885-0.646-1.036
	l0.091-0.194l0.426,0.234c0,0-0.039-0.206-0.063-0.316C11.46,5.228,11.389,4.157,11.544,3.896z"/>
<path style="fill-rule:evenodd;clip-rule:evenodd;fill:#71DE70;" d="M1.106,4.557c3.651-4.568,6.576-1.788,7.737-1.243
	c1.476,0.849,1.987,1.395,2.349,2.41c0.309,0.869-0.016,1.353-0.82,1.376C9.059,7.138,8.46,6.318,6.328,5.909
	C4.03,5.467,3.002,4.106,1.106,4.557z"/>
<path style="opacity:0.2;fill-rule:evenodd;clip-rule:evenodd;fill:#FFFFFF;" d="M17.223,9.03c0.841,0,1.523,0.817,1.523,1.824
	s-0.682,1.824-1.523,1.824c-0.841,0-1.523-0.817-1.523-1.824S16.382,9.03,17.223,9.03z"/>
<path style="fill:#65C765;" d="M10.561,6.507C9.249,6.545,8.65,5.725,6.518,5.315C4.38,4.904,3.333,3.716,1.671,3.914
	C1.485,4.113,1.299,4.319,1.109,4.557c1.896-0.451,2.924,0.91,5.222,1.352c2.132,0.41,2.73,1.23,4.043,1.192
	c0.628-0.018,0.959-0.32,0.929-0.864C11.145,6.402,10.898,6.497,10.561,6.507z"/>
</svg>
